<svg version="1.0" xmlns="http://www.w3.org/2000/svg" xmlns:xlink="http://www.w3.org/1999/xlink" x="0px" y="0px" width="100px" viewBox="0 0 800 600" enable-background="new 0 0 800 600" xml:space="preserve" preserveAspectRatio="xMinYMin">
<g id="Layer_1">
	<rect x="120" y="240" fill="#ffffff" width="32" height="32"></rect>
	<rect x="120" y="279.999" fill="#ffffff" width="32" height="32"></rect>
	<rect x="120" y="319.999" fill="#ffffff" width="32" height="32"></rect>
	<rect x="120" y="360" fill="#ffffff" width="32" height="32"></rect>
	<rect x="120" y="400" fill="#ffffff" width="32" height="32"></rect>
	<rect x="40" y="279.999" fill="#ffffff" width="32" height="32"></rect>
	<rect x="40" y="360" fill="#ffffff" width="32" height="32"></rect>
	<rect x="80" y="240" fill="#ffffff" width="32" height="32"></rect>
	<rect x="80" y="279.999" fill="#ffffff" width="32" height="32"></rect>
	<rect x="80" y="319.999" fill="#ffffff" width="32" height="32"></rect>
	<rect x="80" y="360" fill="#ffffff" width="32" height="32"></rect>
	<rect x="160" y="240" fill="#ffffff" width="32" height="32"></rect>
	<rect x="160" y="279.999" fill="#ffffff" width="32" height="32"></rect>
	<rect x="160" y="319.999" fill="#ffffff" width="32" height="32"></rect>
	<rect x="160" y="360" fill="#ffffff" width="32" height="32"></rect>
	<rect x="200" y="240" fill="#ffffff" width="32" height="32"></rect>
	<rect x="200" y="279.999" fill="#ffffff" width="32" height="32"></rect>
	<rect x="200" y="319.999" fill="#ffffff" width="32" height="32"></rect>
	<rect x="200" y="360" fill="#ffffff" width="32" height="32"></rect>
	<rect x="360" y="240" fill="#ffffff" width="32" height="32"></rect>
	<rect x="360" y="279.999" fill="#ffffff" width="32" height="32"></rect>
	<rect x="360" y="319.999" fill="#ffffff" width="32" height="32"></rect>
	<rect x="360" y="360" fill="#ffffff" width="32" height="32"></rect>
	<rect x="400" y="240" fill="#ffffff" width="32" height="32"></rect>
	<rect x="400" y="279.999" fill="#ffffff" width="32" height="32"></rect>
	<rect x="400" y="319.999" fill="#ffffff" width="32" height="32"></rect>
	<rect x="400" y="360" fill="#ffffff" width="32" height="32"></rect>
	<rect x="280" y="400" fill="#ffffff" width="32" height="32"></rect>
	<rect x="440" y="240" fill="#ffffff" width="32" height="32"></rect>
	<rect x="440" y="279.999" fill="#ffffff" width="32" height="32"></rect>
	<rect x="440" y="319.999" fill="#ffffff" width="32" height="32"></rect>
	<rect x="440" y="360" fill="#ffffff" width="32" height="32"></rect>
	<rect x="480" y="240" fill="#ffffff" width="32" height="32"></rect>
	<rect x="480" y="279.999" fill="#ffffff" width="32" height="32"></rect>
	<rect x="480" y="319.999" fill="#ffffff" width="32" height="32"></rect>
	<rect x="480" y="360" fill="#ffffff" width="32" height="32"></rect>
	<rect x="520" y="240" fill="#ffffff" width="32" height="32"></rect>
	<rect x="520" y="279.999" fill="#ffffff" width="32" height="32"></rect>
	<rect x="520" y="319.999" fill="#ffffff" width="32" height="32"></rect>
	<rect x="520" y="400" fill="#ffffff" width="32" height="32"></rect>
	<rect x="560" y="240" fill="#ffffff" width="32" height="32"></rect>
	<rect x="560" y="279.999" fill="#ffffff" width="32" height="32"></rect>
	<rect x="600" y="319.999" fill="#ffffff" width="32" height="32"></rect>
	<rect x="640" y="320" fill="#ffffff" width="32" height="32"></rect>
	<rect x="640" y="280" fill="#ffffff" width="32" height="32"></rect>
	<rect x="640" y="240" fill="#ffffff" width="32" height="32"></rect>
	<rect x="680" y="200" fill="#ffffff" width="32" height="32"></rect>
	<rect x="720" y="160" fill="#ffffff" width="32" height="32"></rect>
	<rect x="760" y="120" fill="#ffffff" width="32" height="32"></rect>
	<rect x="600" y="239.999" fill="#ffffff" width="32" height="32"></rect>
	<rect x="600" y="200" fill="#ffffff" width="32" height="32"></rect>
	<rect x="640" y="159.999" fill="#ffffff" width="32" height="32"></rect>
	<rect x="680" y="119.999" fill="#ffffff" width="32" height="32"></rect>
	<rect x="560" y="400" fill="#ffffff" width="32" height="32"></rect>
	<rect x="520" y="360" fill="#ffffff" width="32" height="32"></rect>
	<rect x="600" y="360" fill="#ffffff" width="32" height="32"></rect>
	<rect x="560" y="319.999" fill="#ffffff" width="32" height="32"></rect>
	<rect x="560" y="360" fill="#ffffff" width="32" height="32"></rect>
	<rect x="240" y="240" fill="#ffffff" width="32" height="32"></rect>
	<rect x="240" y="279.999" fill="#ffffff" width="32" height="32"></rect>
	<rect x="240" y="319.999" fill="#ffffff" width="32" height="32"></rect>
	<rect x="240" y="360" fill="#ffffff" width="32" height="32"></rect>
	<rect x="280" y="240" fill="#ffffff" width="32" height="32"></rect>
	<rect x="280" y="279.999" fill="#ffffff" width="32" height="32"></rect>
	<rect x="280" y="319.999" fill="#ffffff" width="32" height="32"></rect>
	<rect x="280" y="360" fill="#ffffff" width="32" height="32"></rect>
	<rect x="320" y="240" fill="#ffffff" width="32" height="32"></rect>
	<rect x="320" y="279.999" fill="#ffffff" width="32" height="32"></rect>
	<rect x="320" y="319.999" fill="#ffffff" width="32" height="32"></rect>
	<rect x="320" y="360" fill="#ffffff" width="32" height="32"></rect>
	<rect x="320" y="400" fill="#ffffff" width="32" height="32"></rect>
	<rect x="80" y="440" fill="#ffffff" width="32" height="32"></rect>
	<rect x="200" y="200" fill="#ffffff" width="32" height="32"></rect>
	<rect x="240" y="200" fill="#ffffff" width="32" height="32"></rect>
	<rect x="280" y="200" fill="#ffffff" width="32" height="32"></rect>
	<rect x="240" y="160" fill="#ffffff" width="32" height="32"></rect>
	<rect x="480" y="440" fill="#ffffff" width="32" height="32"></rect>
	<rect x="600" y="440" fill="#ffffff" width="32" height="32"></rect>
</g>
</svg>